<svg width="126" height="38" viewBox="0 0 126 38" fill="none" xmlns="http://www.w3.org/2000/svg">
<rect y="1" width="90" height="35" fill="#FF2330" style="fill:#FF2330;fill:color(display-p3 1.0000 0.1375 0.1882);fill-opacity:1;"/>
<path d="M8.312 6.6H13.336L15.576 22.632H15.64L17.88 6.6H22.904V29H19.576V12.04H19.512L16.952 29H14.008L11.448 12.04H11.384V29H8.312V6.6ZM28.2508 6.6H33.0188L36.6668 29H33.1468L32.5068 24.552V24.616H28.5068L27.8668 29H24.6028L28.2508 6.6ZM32.0908 21.576L30.5228 10.504H30.4588L28.9227 21.576H32.0908ZM38.3745 6.6H43.5905C45.4038 6.6 46.7265 7.02667 47.5585 7.88C48.3905 8.712 48.8065 10.0027 48.8065 11.752V13.128C48.8065 15.4533 48.0385 16.9253 46.5025 17.544V17.608C47.3558 17.864 47.9532 18.3867 48.2945 19.176C48.6572 19.9653 48.8385 21.0213 48.8385 22.344V26.28C48.8385 26.92 48.8598 27.4427 48.9025 27.848C48.9452 28.232 49.0518 28.616 49.2225 29H45.6385C45.5105 28.6373 45.4252 28.296 45.3825 27.976C45.3398 27.656 45.3185 27.08 45.3185 26.248V22.152C45.3185 21.128 45.1478 20.4133 44.8065 20.008C44.4865 19.6027 43.9212 19.4 43.1105 19.4H41.8945V29H38.3745V6.6ZM43.1745 16.2C43.8785 16.2 44.4012 16.0187 44.7425 15.656C45.1052 15.2933 45.2865 14.6853 45.2865 13.832V12.104C45.2865 11.2933 45.1372 10.7067 44.8385 10.344C44.5612 9.98133 44.1132 9.8 43.4945 9.8H41.8945V16.2H43.1745ZM50.2278 6.6H53.7798L56.0838 23.976H56.1478L58.4518 6.6H61.6838L58.2917 29H53.6198L50.2278 6.6ZM63.3745 6.6H72.9745V9.8H66.8945V15.72H71.7265V18.92H66.8945V25.8H72.9745V29H63.3745V6.6ZM74.9995 6.6H78.5195V25.8H84.3115V29H74.9995V6.6Z" fill="white" style="fill:white;fill-opacity:1;"/>
<path d="M96.984 10.2H99.624V17.04H102.456V10.2H105.096V27H102.456V19.44H99.624V27H96.984V10.2ZM110.902 27.24C109.622 27.24 108.646 26.88 107.974 26.16C107.302 25.424 106.966 24.376 106.966 23.016V10.2H109.606V23.208C109.606 23.784 109.718 24.2 109.942 24.456C110.182 24.712 110.518 24.84 110.95 24.84C111.382 24.84 111.71 24.712 111.934 24.456C112.174 24.2 112.294 23.784 112.294 23.208V10.2H114.838V23.016C114.838 24.376 114.502 25.424 113.83 26.16C113.158 26.88 112.182 27.24 110.902 27.24ZM116.718 10.2H120.702C122.062 10.2 123.054 10.52 123.678 11.16C124.302 11.784 124.614 12.752 124.614 14.064V14.736C124.614 15.6 124.47 16.304 124.182 16.848C123.91 17.392 123.486 17.784 122.91 18.024V18.072C124.222 18.52 124.878 19.688 124.878 21.576V23.016C124.878 24.312 124.534 25.304 123.846 25.992C123.174 26.664 122.182 27 120.87 27H116.718V10.2ZM120.39 17.04C120.918 17.04 121.31 16.904 121.566 16.632C121.838 16.36 121.974 15.904 121.974 15.264V14.328C121.974 13.72 121.862 13.28 121.638 13.008C121.43 12.736 121.094 12.6 120.63 12.6H119.358V17.04H120.39ZM120.87 24.6C121.334 24.6 121.678 24.48 121.902 24.24C122.126 23.984 122.238 23.552 122.238 22.944V21.48C122.238 20.712 122.102 20.184 121.83 19.896C121.574 19.592 121.142 19.44 120.534 19.44H119.358V24.6H120.87Z" fill="#FF2330" style="fill:#FF2330;fill:color(display-p3 1.0000 0.1375 0.1882);fill-opacity:1;"/>
</svg>
