<svg width="126" height="38" viewBox="0 0 126 38" fill="none" xmlns="http://www.w3.org/2000/svg">
<rect y="1" width="90" height="35" fill="#FF2330" style="fill:#FF2330;fill:color(display-p3 1.0000 0.1375 0.1882);fill-opacity:1;"/>
<path d="M8.312 6.6H13.336L15.576 22.632H15.64L17.88 6.6H22.904V29H19.576V12.04H19.512L16.952 29H14.008L11.448 12.04H11.384V29H8.312V6.6ZM28.2508 6.6H33.0188L36.6668 29H33.1468L32.5068 24.552V24.616H28.5068L27.8668 29H24.6028L28.2508 6.6ZM32.0908 21.576L30.5228 10.504H30.4588L28.9227 21.576H32.0908ZM38.3745 6.6H43.5905C45.4038 6.6 46.7265 7.02667 47.5585 7.88C48.3905 8.712 48.8065 10.0027 48.8065 11.752V13.128C48.8065 15.4533 48.0385 16.9253 46.5025 17.544V17.608C47.3558 17.864 47.9532 18.3867 48.2945 19.176C48.6572 19.9653 48.8385 21.0213 48.8385 22.344V26.28C48.8385 26.92 48.8598 27.4427 48.9025 27.848C48.9452 28.232 49.0518 28.616 49.2225 29H45.6385C45.5105 28.6373 45.4252 28.296 45.3825 27.976C45.3398 27.656 45.3185 27.08 45.3185 26.248V22.152C45.3185 21.128 45.1478 20.4133 44.8065 20.008C44.4865 19.6027 43.9212 19.4 43.1105 19.4H41.8945V29H38.3745V6.6ZM43.1745 16.2C43.8785 16.2 44.4012 16.0187 44.7425 15.656C45.1052 15.2933 45.2865 14.6853 45.2865 13.832V12.104C45.2865 11.2933 45.1372 10.7067 44.8385 10.344C44.5612 9.98133 44.1132 9.8 43.4945 9.8H41.8945V16.2H43.1745ZM50.2278 6.6H53.7798L56.0838 23.976H56.1478L58.4518 6.6H61.6838L58.2917 29H53.6198L50.2278 6.6ZM63.3745 6.6H72.9745V9.8H66.8945V15.72H71.7265V18.92H66.8945V25.8H72.9745V29H63.3745V6.6ZM74.9995 6.6H78.5195V25.8H84.3115V29H74.9995V6.6Z" fill="white" style="fill:white;fill-opacity:1;"/>
<mask id="path-3-outside-1_14_161" maskUnits="userSpaceOnUse" x="96" y="9" width="30" height="19" fill="black">
<rect fill="white" x="96" y="9" width="30" height="19"/>
<path d="M96.984 10.2H99.624V17.04H102.456V10.2H105.096V27H102.456V19.44H99.624V27H96.984V10.2ZM110.902 27.24C109.622 27.24 108.646 26.88 107.974 26.16C107.302 25.424 106.966 24.376 106.966 23.016V10.2H109.606V23.208C109.606 23.784 109.718 24.2 109.942 24.456C110.182 24.712 110.518 24.84 110.95 24.84C111.382 24.84 111.71 24.712 111.934 24.456C112.174 24.2 112.294 23.784 112.294 23.208V10.2H114.838V23.016C114.838 24.376 114.502 25.424 113.83 26.16C113.158 26.88 112.182 27.24 110.902 27.24ZM116.718 10.2H120.702C122.062 10.2 123.054 10.52 123.678 11.16C124.302 11.784 124.614 12.752 124.614 14.064V14.736C124.614 15.6 124.47 16.304 124.182 16.848C123.91 17.392 123.486 17.784 122.91 18.024V18.072C124.222 18.52 124.878 19.688 124.878 21.576V23.016C124.878 24.312 124.534 25.304 123.846 25.992C123.174 26.664 122.182 27 120.87 27H116.718V10.2ZM120.39 17.04C120.918 17.04 121.31 16.904 121.566 16.632C121.838 16.36 121.974 15.904 121.974 15.264V14.328C121.974 13.72 121.862 13.28 121.638 13.008C121.43 12.736 121.094 12.6 120.63 12.6H119.358V17.04H120.39ZM120.87 24.6C121.334 24.6 121.678 24.48 121.902 24.24C122.126 23.984 122.238 23.552 122.238 22.944V21.48C122.238 20.712 122.102 20.184 121.83 19.896C121.574 19.592 121.142 19.44 120.534 19.44H119.358V24.6H120.87Z"/>
</mask>
<path d="M96.984 10.2H99.624V17.04H102.456V10.2H105.096V27H102.456V19.44H99.624V27H96.984V10.2ZM110.902 27.24C109.622 27.24 108.646 26.88 107.974 26.16C107.302 25.424 106.966 24.376 106.966 23.016V10.2H109.606V23.208C109.606 23.784 109.718 24.2 109.942 24.456C110.182 24.712 110.518 24.84 110.95 24.84C111.382 24.84 111.71 24.712 111.934 24.456C112.174 24.2 112.294 23.784 112.294 23.208V10.2H114.838V23.016C114.838 24.376 114.502 25.424 113.83 26.16C113.158 26.88 112.182 27.24 110.902 27.24ZM116.718 10.2H120.702C122.062 10.2 123.054 10.52 123.678 11.16C124.302 11.784 124.614 12.752 124.614 14.064V14.736C124.614 15.6 124.47 16.304 124.182 16.848C123.91 17.392 123.486 17.784 122.91 18.024V18.072C124.222 18.52 124.878 19.688 124.878 21.576V23.016C124.878 24.312 124.534 25.304 123.846 25.992C123.174 26.664 122.182 27 120.87 27H116.718V10.2ZM120.39 17.04C120.918 17.04 121.31 16.904 121.566 16.632C121.838 16.36 121.974 15.904 121.974 15.264V14.328C121.974 13.72 121.862 13.28 121.638 13.008C121.43 12.736 121.094 12.6 120.63 12.6H119.358V17.04H120.39ZM120.87 24.6C121.334 24.6 121.678 24.48 121.902 24.24C122.126 23.984 122.238 23.552 122.238 22.944V21.48C122.238 20.712 122.102 20.184 121.83 19.896C121.574 19.592 121.142 19.44 120.534 19.44H119.358V24.6H120.87Z" fill="#EEEEEE" style="fill:#EEEEEE;fill:color(display-p3 0.9333 0.9333 0.9333);fill-opacity:1;"/>
<path d="M96.984 10.2V9.7H96.484V10.2H96.984ZM99.624 10.2H100.124V9.7H99.624V10.2ZM99.624 17.04H99.124V17.54H99.624V17.04ZM102.456 17.04V17.54H102.956V17.04H102.456ZM102.456 10.2V9.7H101.956V10.2H102.456ZM105.096 10.2H105.596V9.7H105.096V10.2ZM105.096 27V27.5H105.596V27H105.096ZM102.456 27H101.956V27.5H102.456V27ZM102.456 19.44H102.956V18.94H102.456V19.44ZM99.624 19.44V18.94H99.124V19.44H99.624ZM99.624 27V27.5H100.124V27H99.624ZM96.984 27H96.484V27.5H96.984V27ZM96.984 10.7H99.624V9.7H96.984V10.7ZM99.124 10.2V17.04H100.124V10.2H99.124ZM99.624 17.54H102.456V16.54H99.624V17.54ZM102.956 17.04V10.2H101.956V17.04H102.956ZM102.456 10.7H105.096V9.7H102.456V10.7ZM104.596 10.2V27H105.596V10.2H104.596ZM105.096 26.5H102.456V27.5H105.096V26.5ZM102.956 27V19.44H101.956V27H102.956ZM102.456 18.94H99.624V19.94H102.456V18.94ZM99.124 19.44V27H100.124V19.44H99.124ZM99.624 26.5H96.984V27.5H99.624V26.5ZM97.484 27V10.2H96.484V27H97.484ZM107.974 26.16L107.605 26.4972L107.609 26.5012L107.974 26.16ZM106.966 10.2V9.7H106.466V10.2H106.966ZM109.606 10.2H110.106V9.7H109.606V10.2ZM109.942 24.456L109.566 24.7853L109.571 24.7917L109.577 24.798L109.942 24.456ZM111.934 24.456L111.569 24.114L111.563 24.1203L111.558 24.1267L111.934 24.456ZM112.294 10.2V9.7H111.794V10.2H112.294ZM114.838 10.2H115.338V9.7H114.838V10.2ZM113.83 26.16L114.196 26.5012L114.199 26.4971L113.83 26.16ZM110.902 26.74C109.717 26.74 108.891 26.4094 108.34 25.8188L107.609 26.5012C108.401 27.3506 109.527 27.74 110.902 27.74V26.74ZM108.343 25.8229C107.782 25.2081 107.466 24.2972 107.466 23.016H106.466C106.466 24.4548 106.822 25.6399 107.605 26.4971L108.343 25.8229ZM107.466 23.016V10.2H106.466V23.016H107.466ZM106.966 10.7H109.606V9.7H106.966V10.7ZM109.106 10.2V23.208H110.106V10.2H109.106ZM109.106 23.208C109.106 23.8277 109.223 24.3931 109.566 24.7853L110.318 24.1267C110.214 24.0069 110.106 23.7403 110.106 23.208H109.106ZM109.577 24.798C109.933 25.1773 110.414 25.34 110.95 25.34V24.34C110.622 24.34 110.431 24.2467 110.307 24.114L109.577 24.798ZM110.95 25.34C111.485 25.34 111.967 25.1777 112.31 24.7853L111.558 24.1267C111.453 24.2463 111.28 24.34 110.95 24.34V25.34ZM112.299 24.798C112.667 24.4054 112.794 23.8342 112.794 23.208H111.794C111.794 23.7338 111.681 23.9946 111.569 24.114L112.299 24.798ZM112.794 23.208V10.2H111.794V23.208H112.794ZM112.294 10.7H114.838V9.7H112.294V10.7ZM114.338 10.2V23.016H115.338V10.2H114.338ZM114.338 23.016C114.338 24.2972 114.022 25.2081 113.461 25.8229L114.199 26.4971C114.982 25.6399 115.338 24.4548 115.338 23.016H114.338ZM113.465 25.8188C112.913 26.4094 112.087 26.74 110.902 26.74V27.74C112.277 27.74 113.403 27.3506 114.196 26.5012L113.465 25.8188ZM116.718 10.2V9.7H116.218V10.2H116.718ZM123.678 11.16L123.32 11.5091L123.325 11.5136L123.678 11.16ZM124.182 16.848L123.74 16.614L123.735 16.6244L124.182 16.848ZM122.91 18.024L122.718 17.5625L122.41 17.6907V18.024H122.91ZM122.91 18.072H122.41V18.4296L122.749 18.5452L122.91 18.072ZM123.846 25.992L124.2 26.3456L124.2 26.3456L123.846 25.992ZM116.718 27H116.218V27.5H116.718V27ZM121.566 16.632L121.213 16.2784L121.207 16.2838L121.202 16.2893L121.566 16.632ZM121.638 13.008L121.241 13.3117L121.247 13.3189L121.252 13.3259L121.638 13.008ZM119.358 12.6V12.1H118.858V12.6H119.358ZM119.358 17.04H118.858V17.54H119.358V17.04ZM121.902 24.24L122.268 24.5812L122.273 24.5753L122.279 24.5693L121.902 24.24ZM121.83 19.896L121.448 20.2181L121.457 20.229L121.467 20.2393L121.83 19.896ZM119.358 19.44V18.94H118.858V19.44H119.358ZM119.358 24.6H118.858V25.1H119.358V24.6ZM116.718 10.7H120.702V9.7H116.718V10.7ZM120.702 10.7C121.997 10.7 122.83 11.0059 123.32 11.509L124.036 10.8109C123.279 10.0341 122.128 9.7 120.702 9.7V10.7ZM123.325 11.5136C123.818 12.0066 124.114 12.8206 124.114 14.064H125.114C125.114 12.6834 124.787 11.5614 124.032 10.8064L123.325 11.5136ZM124.114 14.064V14.736H125.114V14.064H124.114ZM124.114 14.736C124.114 15.5495 123.978 16.1653 123.74 16.6141L124.624 17.0819C124.963 16.4427 125.114 15.6505 125.114 14.736H124.114ZM123.735 16.6244C123.518 17.058 123.186 17.3673 122.718 17.5625L123.103 18.4855C123.786 18.2007 124.302 17.7259 124.63 17.0716L123.735 16.6244ZM122.41 18.024V18.072H123.41V18.024H122.41ZM122.749 18.5452C123.293 18.7309 123.685 19.0562 123.95 19.5288C124.223 20.0137 124.378 20.6846 124.378 21.576H125.378C125.378 20.5794 125.206 19.7223 124.822 19.0392C124.432 18.3438 123.84 17.8611 123.072 17.5988L122.749 18.5452ZM124.378 21.576V23.016H125.378V21.576H124.378ZM124.378 23.016C124.378 24.2249 124.059 25.0721 123.493 25.6384L124.2 26.3456C125.01 25.5359 125.378 24.3991 125.378 23.016H124.378ZM123.493 25.6384C122.946 26.1857 122.101 26.5 120.87 26.5V27.5C122.264 27.5 123.403 27.1423 124.2 26.3456L123.493 25.6384ZM120.87 26.5H116.718V27.5H120.87V26.5ZM117.218 27V10.2H116.218V27H117.218ZM120.39 17.54C120.998 17.54 121.546 17.3828 121.93 16.9747L121.202 16.2893C121.074 16.4252 120.839 16.54 120.39 16.54V17.54ZM121.92 16.9856C122.332 16.5739 122.474 15.9533 122.474 15.264H121.474C121.474 15.8547 121.345 16.1461 121.213 16.2784L121.92 16.9856ZM122.474 15.264V14.328H121.474V15.264H122.474ZM122.474 14.328C122.474 13.6803 122.359 13.0967 122.024 12.6901L121.252 13.3259C121.366 13.4633 121.474 13.7597 121.474 14.328H122.474ZM122.036 12.7043C121.702 12.268 121.191 12.1 120.63 12.1V13.1C120.998 13.1 121.159 13.204 121.241 13.3117L122.036 12.7043ZM120.63 12.1H119.358V13.1H120.63V12.1ZM118.858 12.6V17.04H119.858V12.6H118.858ZM119.358 17.54H120.39V16.54H119.358V17.54ZM120.87 25.1C121.414 25.1 121.916 24.9585 122.268 24.5812L121.537 23.8988C121.441 24.0015 121.254 24.1 120.87 24.1V25.1ZM122.279 24.5693C122.625 24.1735 122.738 23.5874 122.738 22.944H121.738C121.738 23.5166 121.628 23.7945 121.526 23.9107L122.279 24.5693ZM122.738 22.944V21.48H121.738V22.944H122.738ZM122.738 21.48C122.738 20.6891 122.606 19.9888 122.194 19.5527L121.467 20.2393C121.599 20.3792 121.738 20.7349 121.738 21.48H122.738ZM122.213 19.5739C121.821 19.1083 121.211 18.94 120.534 18.94V19.94C121.074 19.94 121.328 20.0757 121.448 20.2181L122.213 19.5739ZM120.534 18.94H119.358V19.94H120.534V18.94ZM118.858 19.44V24.6H119.858V19.44H118.858ZM119.358 25.1H120.87V24.1H119.358V25.1Z" fill="#C6C6C6" style="fill:#C6C6C6;fill:color(display-p3 0.7765 0.7765 0.7765);fill-opacity:1;" mask="url(#path-3-outside-1_14_161)"/>
</svg>
